HIERARCHY
ROOT RootJoint
{
    OFFSET   0.000000   0.000000   0.000000
    CHANNELS 6 Xposition Yposition Zposition Xrotation Yrotation Zrotation
    JOINT lHip
    {
        OFFSET   0.100000  -0.051395   0.000000
        CHANNELS 3 Xrotation Yrotation Zrotation
        JOINT lKnee
        {
            OFFSET   0.000000  -0.410000   0.000000
            CHANNELS 3 Xrotation Yrotation Zrotation
            JOINT lAnkle
            {
                OFFSET   0.000000  -0.390000   0.000000
                CHANNELS 3 Xrotation Yrotation Zrotation
                JOINT lToeJoint
                {
                    OFFSET   0.000000  -0.050000   0.130000
                    CHANNELS 3 Xrotation Yrotation Zrotation
                    End Site
                    {
                        OFFSET   0.010000   0.002000   0.060000
                    }
                }
            }
        }
    }
    JOINT rHip
    {
        OFFSET  -0.100000  -0.051395   0.000000
        CHANNELS 3 Xrotation Yrotation Zrotation
        JOINT rKnee
        {
            OFFSET   0.000000  -0.410000   0.000000
            CHANNELS 3 Xrotation Yrotation Zrotation
            JOINT rAnkle
            {
                OFFSET   0.000000  -0.390000   0.000000
                CHANNELS 3 Xrotation Yrotation Zrotation
                JOINT rToeJoint
                {
                    OFFSET   0.000000  -0.050000   0.130000
                    CHANNELS 3 Xrotation Yrotation Zrotation
                    End Site
                    {
                        OFFSET  -0.010000   0.002000   0.060000
                    }
                }
            }
        }
    }
    JOINT pelvis_lowerback
    {
        OFFSET   0.000000   0.093605   0.000000
        CHANNELS 3 Xrotation Yrotation Zrotation
        JOINT lowerback_torso
        {
            OFFSET   0.000000   0.100000   0.000000
            CHANNELS 3 Xrotation Yrotation Zrotation
            JOINT torso_head
            {
                OFFSET   0.000000   0.282350   0.000000
                CHANNELS 3 Xrotation Yrotation Zrotation
                End Site
                {
                    OFFSET   0.000000   0.192650   0.000000
                }
            }
            JOINT lTorso_Clavicle
            {
                OFFSET   0.001000   0.157500   0.000000
                CHANNELS 3 Xrotation Yrotation Zrotation
                JOINT lShoulder
                {
                    OFFSET   0.117647   0.000000   0.000000
                    CHANNELS 3 Xrotation Yrotation Zrotation
                    JOINT lElbow
                    {
                        OFFSET   0.245000   0.000000   0.000000
                        CHANNELS 3 Xrotation Yrotation Zrotation
                        JOINT lWrist
                        {
                            OFFSET   0.240000   0.000000   0.000000
                            CHANNELS 3 Xrotation Yrotation Zrotation
                            End Site
                            {
                                OFFSET   0.116353  -0.002500   0.000000
                            }
                        }
                    }
                }
            }
            JOINT rTorso_Clavicle
            {
                OFFSET  -0.001000   0.157500   0.000000
                CHANNELS 3 Xrotation Yrotation Zrotation
                JOINT rShoulder
                {
                    OFFSET  -0.117647   0.000000   0.000000
                    CHANNELS 3 Xrotation Yrotation Zrotation
                    JOINT rElbow
                    {
                        OFFSET  -0.245000   0.000000   0.000000
                        CHANNELS 3 Xrotation Yrotation Zrotation
                        JOINT rWrist
                        {
                            OFFSET  -0.240000   0.000000   0.000000
                            CHANNELS 3 Xrotation Yrotation Zrotation
                            End Site
                            {
                                OFFSET  -0.116353  -0.002500   0.000000
                            }
                        }
                    }
                }
            }
        }
    }
}
MOTION
Frames: 8
Frame Time:   0.016667
  1.418128   0.910539   1.673873   3.554747 -81.471322   3.263499   0.350079  15.939755  -1.402758  -1.931477   5.441892   3.143267   0.719815   4.272317  -1.371348  -0.000003  -0.000001   0.000000  -1.065685  -4.583876   1.574410   0.298136   0.005253  -1.091613   0.598547  -0.053679  -0.746559   0.000000   0.000003   0.000001   0.285605  -0.415099   0.517476   1.171650  -1.710081   2.025959   9.023769   5.215882  -2.293222   0.642261  -0.491893 -14.286790  15.060914 -38.036959 -45.983244  -2.088228 -17.021942   1.635064   3.240009   2.726698  -5.916632  -1.658216  -0.276859  16.572914  14.968767  25.836897  53.655990  -0.568330  19.825345  -4.606320   6.597355  -0.383023   0.632129
  1.417854   0.910510   1.673838   3.477272 -81.396509   3.194433   0.373901  15.905121  -1.402516  -1.943489   5.419090   3.131221   0.720324   4.256302  -1.373740  -0.000002   0.000000   0.000000  -1.034696  -4.619686   1.581954   0.305122  -0.018067  -1.113603   0.570141  -0.071277  -0.746057   0.000000   0.000003   0.000001   0.283688  -0.410246   0.516993   1.163306  -1.690344   2.021692   9.063559   5.271775  -2.310204   0.643561  -0.475789 -14.301139  15.117848 -38.003204 -45.940083  -2.071133 -16.886162   1.612479   3.277297   2.745802  -5.815496  -1.658357  -0.270456  16.572230  14.975497  25.838605  53.639859  -0.567492  19.801821  -4.613405   6.587250  -0.405006   0.620021
  1.417607   0.910484   1.673847   3.410642 -81.334695   3.136791   0.401751  15.884375  -1.407671  -1.962573   5.395224   3.120853   0.722301   4.239945  -1.375010  -0.000003   0.000000   0.000000  -1.008759  -4.668013   1.582019   0.314033  -0.025753  -1.129242   0.544104  -0.077633  -0.744594   0.000000   0.000002   0.000001   0.282606  -0.406161   0.516496   1.155245  -1.673549   2.016117   9.114731   5.312848  -2.322948   0.644770  -0.461041 -14.314785  15.153135 -37.955907 -45.919740  -2.054269 -16.752088   1.589591   3.335774   2.750558  -5.726564  -1.657966  -0.267965  16.567801  14.968399  25.815714  53.626650  -0.567708  19.796622  -4.616226   6.599033  -0.412219   0.610840
  1.417371   0.910460   1.673867   3.349148 -81.276659   3.084011   0.429676  15.865119  -1.413727  -1.982491   5.372665   3.110873   0.723967   4.224487  -1.375873  -0.000004  -0.000002  -0.000001  -0.984397  -4.720399   1.580245   0.323019  -0.028501  -1.142647   0.519111  -0.080402  -0.743004   0.000001   0.000002   0.000001   0.281726  -0.402468   0.516018   1.147293  -1.658348   2.010646   9.168084   5.350825  -2.334535   0.645917  -0.447355 -14.327750  15.182177 -37.904714 -45.907015  -2.037843 -16.621781   1.566798   3.396723   2.752177  -5.644641  -1.657483  -0.266507  16.562755  14.959861  25.787969  53.613105  -0.568189  19.796398  -4.618415   6.614365  -0.413250   0.602757
  1.417162   0.910437   1.673908   3.302259 -81.226440   3.043759   0.453993  15.840175  -1.419372  -1.999911   5.358335   3.101378   0.722454   4.214315  -1.375621  -0.000002   0.000000  -0.000001  -0.963647  -4.782578   1.575755   0.330489  -0.019708  -1.150123   0.497499  -0.074686  -0.741671   0.000001   0.000002   0.000001   0.281117  -0.400170   0.515652   1.139645  -1.648972   2.007045   9.222011   5.386642  -2.343866   0.646796  -0.438145 -14.337662  15.198656 -37.845649 -45.913216  -2.023763 -16.510467   1.544921   3.450080   2.750522  -5.589051  -1.657018  -0.266814  16.558068  14.957248  25.758119  53.594808  -0.569080  19.805211  -4.621390   6.627333  -0.395038   0.597773
  1.416959   0.910415   1.673954   3.258367 -81.177638   3.006124   0.477650  15.814196  -1.424933  -2.016878   5.345504   3.091969   0.720362   4.205104  -1.375166   0.000000   0.000003   0.000000  -0.943557  -4.846540   1.570790   0.337686  -0.008818  -1.156521   0.476501  -0.067427  -0.740383   0.000000   0.000003   0.000001   0.280556  -0.398125   0.515308   1.132053  -1.640655   2.003785   9.276049   5.422059  -2.352815   0.647628  -0.429748 -14.347020  15.212857 -37.785155 -45.922863  -2.010080 -16.402610   1.523200   3.502058   2.748306  -5.538247  -1.656557  -0.267441  16.553447  14.955703  25.727887  53.575651  -0.570045  19.815668  -4.624508   6.639872  -0.373326   0.593348
  1.416793   0.910396   1.674003   3.221293 -81.137815   2.971964   0.493495  15.768608  -1.426327  -2.023302   5.350339   3.081958   0.712390   4.206997  -1.373544  -0.000001  -0.000001   0.000000  -0.925329  -4.879567   1.568982   0.340727  -0.008460  -1.160468   0.460337  -0.067071  -0.739988  -0.000001   0.000003   0.000001   0.280284  -0.397322   0.515030   1.127096  -1.637448   2.002107   9.326415   5.471361  -2.358502   0.648467  -0.421311 -14.357933  15.227615 -37.736026 -45.933578  -2.001829 -16.339522   1.501295   3.505647   2.756272  -5.541369  -1.656986  -0.264832  16.556838  14.966254  25.697758  53.543345  -0.570937  19.821882  -4.623516   6.623083  -0.343977   0.602257
  1.416633   0.910375   1.674053   3.183759 -81.099558   2.937263   0.508681  15.722648  -1.427429  -2.028272   5.356394   3.071833   0.703756   4.209607  -1.371856  -0.000002  -0.000004   0.000000  -0.907722  -4.906741   1.567520   0.344457  -0.010495  -1.165193   0.444186  -0.068467  -0.739270  -0.000002   0.000003   0.000001   0.280039  -0.396382   0.514790   1.122481  -1.633704   2.000662   9.376205   5.523443  -2.364476   0.649337  -0.412689 -14.369301  15.242525 -37.689190 -45.943501  -1.994295 -16.282578   1.479257   3.502672   2.766868  -5.550185  -1.657510  -0.261672  16.561003  14.976351  25.665547  53.511141  -0.571669  19.826381  -4.621293   6.603630  -0.315682   0.612044
